<svg width="12" height="16" viewBox="0 0 12 16" fill="none" xmlns="http://www.w3.org/2000/svg">
<path d="M4.33333 4.66675C4.33333 4.29856 4.63181 4.00008 5 4.00008H9C9.36819 4.00008 9.66667 4.29856 9.66667 4.66675C9.66667 5.03494 9.36819 5.33341 9 5.33341H5C4.63181 5.33341 4.33333 5.03494 4.33333 4.66675Z" fill="#8E6447"/>
<path d="M5 7.33341C4.63181 7.33341 4.33333 7.63189 4.33333 8.00008C4.33333 8.36827 4.63181 8.66675 5 8.66675H9C9.36819 8.66675 9.66667 8.36827 9.66667 8.00008C9.66667 7.63189 9.36819 7.33341 9 7.33341H5Z" fill="#8E6447"/>
<path d="M4.33333 11.3334C4.33333 10.9652 4.63181 10.6667 5 10.6667H9C9.36819 10.6667 9.66667 10.9652 9.66667 11.3334C9.66667 11.7016 9.36819 12.0001 9 12.0001H5C4.63181 12.0001 4.33333 11.7016 4.33333 11.3334Z" fill="#8E6447"/>
<path d="M3.66667 4.66675C3.66667 5.03495 3.3682 5.33341 3 5.33341C2.6318 5.33341 2.33333 5.03495 2.33333 4.66675C2.33333 4.29855 2.6318 4.00008 3 4.00008C3.3682 4.00008 3.66667 4.29855 3.66667 4.66675Z" fill="#8E6447"/>
<path d="M3 8.66675C3.3682 8.66675 3.66667 8.36828 3.66667 8.00008C3.66667 7.63188 3.3682 7.33341 3 7.33341C2.6318 7.33341 2.33333 7.63188 2.33333 8.00008C2.33333 8.36828 2.6318 8.66675 3 8.66675Z" fill="#8E6447"/>
<path d="M3.66667 11.3334C3.66667 11.7016 3.3682 12.0001 3 12.0001C2.6318 12.0001 2.33333 11.7016 2.33333 11.3334C2.33333 10.9652 2.6318 10.6667 3 10.6667C3.3682 10.6667 3.66667 10.9652 3.66667 11.3334Z" fill="#8E6447"/>
<path fill-rule="evenodd" clip-rule="evenodd" d="M0 2.00008C0 1.2637 0.596954 0.666748 1.33333 0.666748H10.6667C11.403 0.666748 12 1.2637 12 2.00008V14.0001C12 14.7365 11.403 15.3334 10.6667 15.3334H1.33333C0.596954 15.3334 0 14.7365 0 14.0001V2.00008ZM10.6667 2.00008H1.33333V14.0001H10.6667V2.00008Z" fill="#8E6447"/>
</svg>
