<svg width="13" height="14" viewBox="0 0 13 14" fill="none" xmlns="http://www.w3.org/2000/svg">
<path fill-rule="evenodd" clip-rule="evenodd" d="M6.66456 13.6666C5.76123 13.6666 4.88056 13.6566 4.00923 13.6386C2.89456 13.6166 2.12323 12.8939 1.99723 11.7526C1.78723 9.85927 1.42789 5.3966 1.42456 5.35194C1.40189 5.0766 1.60723 4.83527 1.88256 4.81327C2.15389 4.80594 2.39923 4.9966 2.42123 5.27127C2.42456 5.3166 2.78323 9.76394 2.99123 11.6426C3.06256 12.2913 3.41256 12.6259 4.02989 12.6386C5.69656 12.6739 7.39723 12.6759 9.23056 12.6426C9.88656 12.6299 10.2412 12.3019 10.3146 11.6379C10.5212 9.77527 10.8812 5.3166 10.8852 5.27127C10.9072 4.9966 11.1506 4.8046 11.4232 4.81327C11.6986 4.83594 11.9039 5.0766 11.8819 5.35194C11.8779 5.39727 11.5166 9.87127 11.3086 11.7479C11.1792 12.9126 10.4099 13.6213 9.24856 13.6426C8.3599 13.6579 7.50256 13.6666 6.66456 13.6666Z" fill="#D00000"/>
<path fill-rule="evenodd" clip-rule="evenodd" d="M12.3053 3.65942H1C0.724 3.65942 0.5 3.43542 0.5 3.15942C0.5 2.88342 0.724 2.65942 1 2.65942H12.3053C12.5813 2.65942 12.8053 2.88342 12.8053 3.15942C12.8053 3.43542 12.5813 3.65942 12.3053 3.65942Z" fill="#D00000"/>
<path fill-rule="evenodd" clip-rule="evenodd" d="M10.1274 3.6595C9.36871 3.6595 8.71004 3.11883 8.56071 2.37483L8.39871 1.56416C8.36471 1.44083 8.22404 1.3335 8.06404 1.3335H5.24204C5.08204 1.3335 4.94138 1.44083 4.90071 1.59483L4.74538 2.37483C4.59671 3.11883 3.93738 3.6595 3.17871 3.6595C2.90271 3.6595 2.67871 3.4355 2.67871 3.1595C2.67871 2.8835 2.90271 2.6595 3.17871 2.6595C3.46271 2.6595 3.70938 2.45683 3.76538 2.17816L3.92738 1.3675C4.09204 0.746163 4.63004 0.333496 5.24204 0.333496H8.06404C8.67604 0.333496 9.21405 0.746163 9.37205 1.3375L9.54138 2.17816C9.59671 2.45683 9.84338 2.6595 10.1274 2.6595C10.4034 2.6595 10.6274 2.8835 10.6274 3.1595C10.6274 3.4355 10.4034 3.6595 10.1274 3.6595Z" fill="#D00000"/>
</svg>
